<svg xmlns="http://www.w3.org/2000/svg" viewBox="0 0 20 20" fill="none">
  <circle cx="10" cy="10" r="9" fill="#FF4500" />
  <path d="M16.5 10C16.5 9.30964 15.9408 8.75 15.25 8.75C14.9154 8.75 14.6043 8.87035 14.3663 9.07812C13.4974 8.47192 12.3157 8.07545 11.0024 8.0262L11.8201 5.28683L13.9485 5.73929C13.9705 6.23705 14.3772 6.63393 14.875 6.63393C15.3935 6.63393 15.8125 6.21451 15.8125 5.69643C15.8125 5.17835 15.3935 4.75893 14.875 4.75893C14.5075 4.75893 14.1964 4.98795 14.0704 5.31138L11.7094 4.80469C11.6016 4.78348 11.4956 4.84375 11.4635 4.94978L10.5328 8.0183C9.1733 8.04799 7.94922 8.44446 7.06362 9.06696C6.82812 8.87035 6.52232 8.75 6.1875 8.75C5.49665 8.75 4.9375 9.30964 4.9375 10C4.9375 10.4732 5.2356 10.8756 5.65067 11.0246C5.63393 11.1473 5.625 11.2735 5.625 11.4031C5.625 13.3493 7.59487 14.9219 10.0312 14.9219C12.4676 14.9219 14.4375 13.3493 14.4375 11.4031C14.4375 11.2801 14.4298 11.1585 14.4161 11.0391C14.8435 10.8958 15.1562 10.4877 15.1562 10.0045L16.5 10ZM7.54464 10.5357C7.54464 10.0179 7.96361 9.59821 8.48214 9.59821C9.00067 9.59821 9.41964 10.0179 9.41964 10.5357C9.41964 11.0536 9.00067 11.4732 8.48214 11.4732C7.96361 11.4674 7.54464 11.0536 7.54464 10.5357ZM11.6641 13.0748C11.0938 13.6456 10.0536 13.6821 10 13.6821C9.94196 13.6821 8.90179 13.6456 8.33147 13.0748C8.24777 12.9911 8.24777 12.8594 8.33147 12.7756C8.41518 12.6919 8.54687 12.6919 8.63058 12.7756C8.99777 13.1429 9.66741 13.2276 9.99442 13.2276C10.3214 13.2276 10.9955 13.1429 11.3638 12.7756C11.4475 12.6919 11.5792 12.6919 11.6629 12.7756C11.7578 12.8594 11.7533 12.9911 11.6641 13.0748ZM11.5 11.4732C10.9815 11.4732 10.5625 11.0536 10.5625 10.5357C10.5625 10.0179 10.9815 9.59821 11.5 9.59821C12.0185 9.59821 12.4375 10.0179 12.4375 10.5357C12.4375 11.0536 12.0185 11.4732 11.5 11.4732Z" fill="white" />
</svg>